<?xml version="1.0" encoding="UTF-8" standalone="no"?>
<!-- Created with Inkscape (http://www.inkscape.org/) -->

<svg
   xmlns:dc="http://purl.org/dc/elements/1.1/"
   xmlns:cc="http://creativecommons.org/ns#"
   xmlns:rdf="http://www.w3.org/1999/02/22-rdf-syntax-ns#"
   xmlns:svg="http://www.w3.org/2000/svg"
   xmlns="http://www.w3.org/2000/svg"
   xmlns:xlink="http://www.w3.org/1999/xlink"
   xmlns:sodipodi="http://sodipodi.sourceforge.net/DTD/sodipodi-0.dtd"
   xmlns:inkscape="http://www.inkscape.org/namespaces/inkscape"
   width="829.17389"
   height="556.85718"
   id="svg2"
   version="1.1"
   inkscape:version="0.48.4 r9939"
   sodipodi:docname="New document 1">
  <sodipodi:namedview
     id="base"
     pagecolor="#ffffff"
     bordercolor="#666666"
     borderopacity="1.0"
     inkscape:pageopacity="0.0"
     inkscape:pageshadow="2"
     inkscape:zoom="0.49497475"
     inkscape:cx="-52.414955"
     inkscape:cy="65.513597"
     inkscape:document-units="px"
     inkscape:current-layer="layer1"
     showgrid="false"
     inkscape:window-width="1600"
     inkscape:window-height="847"
     inkscape:window-x="-4"
     inkscape:window-y="-4"
     inkscape:window-maximized="1"
     fit-margin-top="0"
     fit-margin-left="0"
     fit-margin-right="0"
     fit-margin-bottom="0" />
  <defs
     id="defs4">
    <marker
       inkscape:stockid="Arrow1Lend"
       orient="auto"
       refY="0"
       refX="0"
       id="Arrow1Lend"
       style="overflow:visible">
      <path
         id="path4101"
         d="M 0,0 5,-5 -12.5,0 5,5 0,0 z"
         style="fill-rule:evenodd;stroke:#000000;stroke-width:1pt"
         transform="matrix(-0.8,0,0,-0.8,-10,0)"
         inkscape:connector-curvature="0" />
    </marker>
    <clipPath
       clipPathUnits="userSpaceOnUse"
       id="clipPath2925">
      <path
         d="M 144.3,657 H 467.7 V 527.28 H 144.3 V 657 z"
         clip-rule="evenodd"
         id="path2927"
         inkscape:connector-curvature="0" />
    </clipPath>
    <clipPath
       clipPathUnits="userSpaceOnUse"
       id="clipPath2931">
      <path
         d="M 0,792.03 H 612 V 0.03 H 0 v 792 z"
         id="path2933"
         inkscape:connector-curvature="0" />
    </clipPath>
    <linearGradient
       x1="315.73999"
       x2="377.39001"
       y1="129.86"
       gradientUnits="userSpaceOnUse"
       y2="681.13"
       id="linearGradient3814">
      <stop
         offset="0"
         stop-color="#fff"
         id="stop3810" />
      <stop
         offset="1"
         stop-opacity="0"
         stop-color="#fff"
         id="stop3812" />
    </linearGradient>
    <linearGradient
       y2="711.83002"
       x2="928"
       gradientTransform="translate(-413.55,36.365)"
       y1="711.28998"
       gradientUnits="userSpaceOnUse"
       xlink:href="#linearGradient3921"
       x1="651.98999"
       id="linearGradient3017" />
    <linearGradient
       y2="725.92999"
       x2="934.40997"
       gradientTransform="translate(-413.55,36.365)"
       y1="725.92999"
       gradientUnits="userSpaceOnUse"
       xlink:href="#linearGradient3921"
       x1="646.85999"
       id="linearGradient2994" />
    <linearGradient
       y2="726.32001"
       x2="791.28998"
       gradientTransform="translate(-413.55,36.365)"
       y1="192.63"
       gradientUnits="userSpaceOnUse"
       x1="791.28998"
       id="linearGradient2992">
      <stop
         offset="0"
         stop-color="#e6e5de"
         id="stop3688" />
      <stop
         offset="1"
         stop-color="#ddd3cc"
         id="stop3690" />
    </linearGradient>
    <filter
       color-interpolation-filters="sRGB"
       id="filter3917">
      <feGaussianBlur
         stdDeviation="1.7767599"
         id="feGaussianBlur3919" />
    </filter>
    <filter
       color-interpolation-filters="sRGB"
       id="filter3876">
      <feGaussianBlur
         stdDeviation="3.0749105"
         id="feGaussianBlur3878" />
    </filter>
    <linearGradient
       id="linearGradient3921">
      <stop
         offset="0"
         stop-opacity="0"
         stop-color="#837b78"
         id="stop3923" />
      <stop
         offset=".05"
         stop-color="#837b78"
         id="stop3931" />
      <stop
         offset=".95"
         stop-color="#837b78"
         id="stop3929" />
      <stop
         offset="1"
         stop-opacity="0"
         stop-color="#837b78"
         id="stop3925" />
    </linearGradient>
    <linearGradient
       inkscape:collect="always"
       xlink:href="#linearGradient2992"
       id="linearGradient3254"
       gradientUnits="userSpaceOnUse"
       gradientTransform="translate(-488.90745,-43.522983)"
       x1="791.28998"
       y1="192.63"
       x2="791.28998"
       y2="726.32001" />
    <linearGradient
       inkscape:collect="always"
       xlink:href="#linearGradient3921"
       id="linearGradient3256"
       gradientUnits="userSpaceOnUse"
       gradientTransform="translate(-488.90745,-43.522983)"
       x1="646.85999"
       y1="725.92999"
       x2="934.40997"
       y2="725.92999" />
    <linearGradient
       inkscape:collect="always"
       xlink:href="#linearGradient3921"
       id="linearGradient3258"
       gradientUnits="userSpaceOnUse"
       gradientTransform="translate(-488.90745,-43.522983)"
       x1="651.98999"
       y1="711.28998"
       x2="928"
       y2="711.83002" />
    <linearGradient
       inkscape:collect="always"
       xlink:href="#linearGradient3814"
       id="linearGradient3260"
       gradientUnits="userSpaceOnUse"
       gradientTransform="translate(-75.357453,-79.887983)"
       x1="315.73999"
       y1="129.86"
       x2="377.39001"
       y2="681.13" />
    <marker
       inkscape:stockid="Arrow1Lendo"
       orient="auto"
       refY="0"
       refX="0"
       id="Arrow1Lendo"
       style="overflow:visible">
      <path
         id="path5094"
         d="M 0,0 5,-5 -12.5,0 5,5 0,0 z"
         style="fill:#ffffff;fill-rule:evenodd;stroke:#ffffff;stroke-width:1pt"
         transform="matrix(-0.8,0,0,-0.8,-10,0)"
         inkscape:connector-curvature="0" />
    </marker>
  </defs>
  <metadata
     id="metadata7">
    <rdf:RDF>
      <cc:Work
         rdf:about="">
        <dc:format>image/svg+xml</dc:format>
        <dc:type
           rdf:resource="http://purl.org/dc/dcmitype/StillImage" />
        <dc:title></dc:title>
      </cc:Work>
    </rdf:RDF>
  </metadata>
  <g
     inkscape:label="Layer 1"
     inkscape:groupmode="layer"
     id="layer1"
     transform="translate(126.17656,-125.84552)">
    <g
       id="g3226"
       transform="matrix(0.5,0.8660254,-0.8660254,0.5,616.6921,-45.889482)">
      <path
         d="m 448.77255,659.84202 c 0,0 0.0163,16.311 -22.892,25.612 -22.908,9.3013 -41.225,15.128 -123.77,15.128 -82.548,0 -112.2,-9.6016 -130.52,-18.903 -16.099,-8.1728 -16.143,-21.838 -16.143,-21.838 h 293.33 z"
         id="path3621"
         inkscape:connector-curvature="0"
         style="fill:#5d544a" />
      <path
         d="m 155.44255,190.73202 c 0,0 -0.14382,-39.222 27.553,-47.041 30.371,-8.5731 90.883,-10.858 119.11,-10.858 28.227,0 87.407,3.0407 119.26,11.936 27.513,7.6837 27.405,45.962 27.405,45.962 v 467.32 c 0,0 0.0163,16.311 -22.892,25.612 -22.908,9.3013 -41.225,15.128 -123.77,15.128 -82.548,0 -112.2,-9.6016 -130.52,-18.903 -16.099,-8.1728 -16.143,-21.838 -16.143,-21.838 v -467.32 z"
         id="path3680"
         inkscape:connector-curvature="0"
         style="fill:#5b5653" />
      <path
         d="m 302.53255,142.92202 c -39.162,1.9654 -83.558,-1.4425 -120.21,14.161 -18.467,9.9305 -19.143,30.581 -18.468,49.125 0.20917,150.29 -1.0659,323.8 0.173,474.09 8.5223,15.929 28.329,18.528 44.247,22.414 57.461,11.206 116.56,7.6042 174.6,3.5958 19.547,-2.6175 40.645,-7.4666 54.776,-21.916 7.5454,-15.818 1.0902,-53.04 3.167,-69.754 -0.85491,-145.67 3.0238,-285.68 0.0116,-431.32 -2.597,-15.279 -10.067,-23.613 -28.79,-31.029 -37.196,-7.3282 -71.286,-7.85 -109.5,-9.3684 h -3e-5 z"
         id="path3800"
         inkscape:connector-curvature="0"
         style="fill:url(#linearGradient3254);filter:url(#filter3876)" />
      <path
         d="m 155.43255,656.02202 c 0,0 -0.85096,27.003 14.75,40.531 19.755,17.13 50.953,21.688 134.22,21.688 83.266,0 100.98,-2.2856 122.56,-15.375 18.3,-11.1 21.15,-37.703 21.594,-44.938 -0.76034,4.5359 -4.4729,16.323 -22.688,23.719 -22.908,9.3013 -41.234,15.125 -123.78,15.125 -82.548,0 -112.18,-9.605 -130.5,-18.906 -16.099,-8.1728 -16.156,-21.844 -16.156,-21.844 z"
         id="path3887"
         inkscape:connector-curvature="0"
         style="fill:#524d49" />
      <path
         d="m 155.43255,658.04202 c 0,0 -0.85096,27.003 14.75,40.531 19.755,17.13 50.953,21.688 134.22,21.688 83.266,0 100.98,-2.2856 122.56,-15.375 18.3,-11.1 21.24,-38.462 21.683,-45.696 -0.76034,4.5359 -4.5622,17.082 -22.777,24.478 -22.908,9.3013 -41.234,15.125 -123.78,15.125 -82.548,0 -112.18,-9.605 -130.5,-18.906 -16.099,-8.1728 -16.156,-21.844 -16.156,-21.844 z"
         id="path3609"
         inkscape:connector-curvature="0"
         style="fill:#54504f" />
      <path
         d="m 155.43255,651.30202 c 0,0 -0.85096,27.003 14.75,40.531 19.755,17.13 50.953,21.688 134.22,21.688 83.266,0 100.98,-2.2856 122.56,-15.375 18.3,-11.1 21.15,-37.703 21.594,-44.938 -0.76034,4.5359 -4.4729,25.966 -22.688,33.362 -22.908,9.3013 -41.234,15.125 -123.78,15.125 -82.548,0 -112.18,-9.605 -130.5,-18.906 -16.099,-8.1728 -16.156,-31.487 -16.156,-31.487 z"
         id="path3889"
         inkscape:connector-curvature="0"
         style="fill:url(#linearGradient3256);filter:url(#filter3917)" />
      <path
         d="m 155.97255,659.16202 c 0,0 -1.3867,15.218 14.214,28.746 19.755,17.13 50.953,21.688 134.22,21.688 83.266,0 100.98,-2.2856 122.56,-15.375 18.3,-11.1 21.106,-27.391 21.549,-34.625 -0.76034,4.5359 -4.4282,16.011 -22.643,23.406 -22.908,9.3013 -41.234,15.125 -123.78,15.125 -82.548,0 -112.18,-9.605 -130.5,-18.906 -16.099,-8.1728 -15.621,-20.058 -15.621,-20.058 z"
         id="path3899"
         inkscape:connector-curvature="0"
         style="fill:url(#linearGradient3258)" />
      <rect
         x="190.36839"
         y="153.81963"
         width="61.377987"
         height="4.468183"
         transform="matrix(0.99602018,-0.08912802,0.08088031,0.99672382,0,0)"
         id="rect3941"
         style="fill:#656260" />
      <path
         d="m 164.65255,192.63202 c 0,0 -0.13471,-16.668 25.809,-23.991 28.448,-8.0305 85.131,-7.8287 111.57,-7.8287 26.441,0 81.875,0.5065 111.71,8.8388 25.772,7.1973 25.67,22.981 25.67,22.981 v 423.25 c 0,0 0.0153,15.279 -21.443,23.991 -21.458,8.7126 -38.615,10.859 -115.94,10.859 -77.323,0 -105.1,-5.6821 -122.26,-14.395 -17.162,-8.7126 -15.122,-20.456 -15.122,-20.456 v -423.25 z"
         id="rect2832"
         inkscape:connector-curvature="0"
         style="fill:#0b0b0b" />
      <rect
         x="182.03256"
         y="201.24202"
         width="240"
         height="400"
         ry="0"
         id="rect2830"
         style="fill:#3a3a3a" />
      <path
         d="m 316.01736,673.56445 c 0,7.75755 -6.28872,14.04584 -14.04584,14.04584 -7.75754,0 -14.04583,-6.28873 -14.04583,-14.04584 0,-7.75754 6.28872,-14.04583 14.04583,-14.04583 7.75755,0 14.04584,6.28872 14.04584,14.04583 z"
         id="path3613"
         inkscape:connector-curvature="0"
         style="fill:#afb1ac;stroke:#151515;stroke-width:4.58978987" />
      <path
         d="m 316.01736,673.56445 c 0,7.75755 -6.28872,14.04584 -14.04584,14.04584 -7.75754,0 -14.04583,-6.28873 -14.04583,-14.04584 0,-7.75754 6.28872,-14.04583 14.04583,-14.04583 7.75755,0 14.04584,6.28872 14.04584,14.04583 z"
         id="path3611"
         inkscape:connector-curvature="0"
         style="fill:#afb1ac;stroke:#4d4b46;stroke-width:2.29025984" />
      <path
         d="m 301.75255,150.73202 c -18.99,-0.012 -37.889,0.4834 -56.688,1.5312 a 2.66,2.66 0 1 0 0.28125,5.3125 c 37.39,-2.0841 75.286,-1.9899 113.31,0 a 2.6592,2.6592 0 1 0 0.25,-5.3125 c -19.101,-0.99953 -38.167,-1.5193 -57.156,-1.5312 z"
         style="text-indent:0;text-transform:none;block-progression:tb;color:#000000;fill:#ffffff;stroke:#5c5c5c"
         id="path3943"
         inkscape:connector-curvature="0" />
      <path
         d="m 300.57255,150.73202 c -0.44763,2.2e-4 -0.89622,0.0305 -1.3438,0.0312 -0.10027,0.14478 -0.1875,0.31202 -0.1875,0.5 0,0.47298 0.37077,0.84375 0.84375,0.84375 0.47298,0 0.875,-0.37077 0.875,-0.84375 0,-0.19708 -0.0719,-0.38276 -0.1875,-0.53125 z m 1.4688,0 c -0.10931,0.14849 -0.1875,0.33417 -0.1875,0.53125 0,0.47298 0.37077,0.84375 0.84375,0.84375 0.47298,0 0.84375,-0.37077 0.84375,-0.84375 0,-0.19708 -0.0782,-0.38276 -0.1875,-0.53125 -0.43734,-9.3e-4 -0.87524,3.9e-4 -1.3125,0 z m -7.0625,0.0312 c -0.46801,0.003 -0.93836,0.0279 -1.4062,0.0312 -0.0912,0.13772 -0.15625,0.29593 -0.15625,0.46875 0,0.47298 0.40202,0.84375 0.875,0.84375 0.47298,0 0.84375,-0.37077 0.84375,-0.84375 0,-0.18192 -0.0618,-0.35791 -0.15625,-0.5 z m 1.4062,0 c -0.0944,0.14209 -0.15625,0.31808 -0.15625,0.5 0,0.47298 0.37077,0.84375 0.84375,0.84375 0.47298,0 0.875,-0.37077 0.875,-0.84375 0,-0.18192 -0.0562,-0.35791 -0.15625,-0.5 -0.46816,0.001 -0.9382,-0.002 -1.4062,0 z m 8.4375,0 c -0.10622,0.14478 -0.1875,0.31202 -0.1875,0.5 0,0.47298 0.40202,0.84375 0.875,0.84375 0.47298,0 0.84375,-0.37077 0.84375,-0.84375 0,-0.18192 -0.0618,-0.35791 -0.15625,-0.5 -0.45834,-0.002 -0.91674,0.002 -1.375,0 z m 2.7812,0 c -0.1001,0.14209 -0.15625,0.31808 -0.15625,0.5 0,0.47298 0.40202,0.84375 0.875,0.84375 0.47298,0 0.84375,-0.37077 0.84375,-0.84375 0,-0.17282 -0.0703,-0.33103 -0.15625,-0.46875 -0.469,-0.003 -0.93733,-0.0284 -1.4062,-0.0312 z m -16.875,0.0312 c -0.0854,0.13461 -0.125,0.30199 -0.125,0.46875 0,0.47298 0.40202,0.84375 0.875,0.84375 0.47298,0 0.84375,-0.37077 0.84375,-0.84375 0,-0.17282 -0.0703,-0.33103 -0.15625,-0.46875 -0.47811,0.004 -0.95951,-0.005 -1.4375,0 z m 19.688,0 c -0.0859,0.13772 -0.15625,0.29593 -0.15625,0.46875 0,0.47298 0.37077,0.84375 0.84375,0.84375 0.47298,0 0.875,-0.37077 0.875,-0.84375 0,-0.17282 -0.0651,-0.33103 -0.15625,-0.46875 -0.46911,-0.005 -0.93723,0.004 -1.4062,0 z m 2.7812,0 c -0.0804,0.13461 -0.125,0.30199 -0.125,0.46875 0,0.47298 0.37077,0.84375 0.84375,0.84375 0.47298,0 0.875,-0.37077 0.875,-0.84375 0,-0.15766 -0.0479,-0.30787 -0.125,-0.4375 -0.4902,-0.006 -0.97864,-0.0257 -1.4688,-0.0312 z m -25.25,0.0312 c -0.0725,0.12963 -0.125,0.27984 -0.125,0.4375 0,0.47298 0.37077,0.84375 0.84375,0.84375 0.47298,0 0.84375,-0.37077 0.84375,-0.84375 0,-0.15766 -0.0525,-0.30787 -0.125,-0.4375 -0.47788,0.005 -0.95974,-0.006 -1.4375,0 z m 28.062,0 c -0.0725,0.12963 -0.125,0.27984 -0.125,0.4375 0,0.47298 0.37077,0.84375 0.84375,0.84375 0.47298,0 0.84375,-0.37077 0.84375,-0.84375 0,-0.1425 -0.0338,-0.28569 -0.0937,-0.40625 -0.48924,-0.007 -0.9796,-0.0245 -1.4688,-0.0312 z m -29.406,0.0314 c -0.50065,0.007 -0.99948,0.0236 -1.5,0.0312 -0.053,0.11469 -0.0937,0.2416 -0.0937,0.375 0,0.47298 0.37077,0.84375 0.84375,0.84375 0.47298,0 0.875,-0.37077 0.875,-0.84375 0,-0.14856 -0.0559,-0.28195 -0.125,-0.40625 z m -2.75,0.0312 c -0.53167,0.009 -1.0622,0.0217 -1.5938,0.0312 -0.0421,0.1042 -0.0625,0.2255 -0.0625,0.34375 0,0.47298 0.37077,0.84375 0.84375,0.84375 0.47298,0 0.875,-0.37077 0.875,-0.84375 0,-0.12734 -0.0107,-0.26441 -0.0625,-0.375 z m 34.906,0 c -0.0565,0.11469 -0.0937,0.2416 -0.0937,0.375 0,0.47298 0.40202,0.84375 0.875,0.84375 0.47298,0 0.84375,-0.37077 0.84375,-0.84375 0,-0.11825 -0.0204,-0.23955 -0.0625,-0.34375 -0.52063,-0.009 -1.042,-0.0227 -1.5625,-0.0312 z m -37.719,0.0625 c -0.53141,0.0102 -1.0625,0.0202 -1.5938,0.0312 -0.0312,0.0885 -0.0625,0.18382 -0.0625,0.28125 0,0.47298 0.40202,0.84375 0.875,0.84375 0.47298,0 0.84375,-0.37077 0.84375,-0.84375 0,-0.10784 -0.0271,-0.21596 -0.0625,-0.3125 z m 40.5,0 c -0.0379,0.0965 -0.0625,0.20466 -0.0625,0.3125 0,0.47298 0.40202,0.84375 0.875,0.84375 0.47298,0 0.84375,-0.37077 0.84375,-0.84375 0,-0.0974 -0.0334,-0.19273 -0.0625,-0.28125 -0.5312,-0.0108 -1.0626,-0.0212 -1.5938,-0.0312 z m -43.281,0.0625 c -0.55197,0.0121 -1.1044,0.0182 -1.6562,0.0312 -0.0188,0.0699 -0.0312,0.14402 -0.0312,0.21875 0,0.47298 0.40202,0.84375 0.875,0.84375 0.47298,0 0.84375,-0.37077 0.84375,-0.84375 0,-0.0851 -0.009,-0.17139 -0.0312,-0.25 z m 46.062,0 c -0.0225,0.0786 -0.0312,0.16486 -0.0312,0.25 0,0.47298 0.37077,0.84375 0.84375,0.84375 0.47298,0 0.875,-0.37077 0.875,-0.84375 0,-0.0747 -0.0125,-0.14887 -0.0312,-0.21875 -0.5522,-0.0127 -1.1042,-0.0194 -1.6562,-0.0312 z m -48.875,0.0625 c -0.54129,0.0134 -1.0839,0.017 -1.625,0.0312 -0.009,0.0516 -0.0312,0.10233 -0.0312,0.15625 0,0.47298 0.37077,0.84375 0.84375,0.84375 0.47298,0 0.84375,-0.37077 0.84375,-0.84375 0,-0.0643 -0.0182,-0.12663 -0.0312,-0.1875 z m 51.688,0 c -0.013,0.0609 -0.0312,0.12317 -0.0312,0.1875 0,0.47298 0.37077,0.84375 0.84375,0.84375 0.47298,0 0.875,-0.37077 0.875,-0.84375 0,-0.0539 -0.0213,-0.10467 -0.0312,-0.15625 -0.55236,-0.0141 -1.104,-0.018 -1.6562,-0.0312 z m -54.469,0.0625 c -0.56411,0.0155 -1.1236,0.0148 -1.6875,0.0312 -0.003,0.0305 0,0.0625 0,0.0937 0,0.47298 0.37077,0.84375 0.84375,0.84375 0.47298,0 0.875,-0.37077 0.875,-0.84375 0,-0.0435 -0.0247,-0.0829 -0.0312,-0.125 z m 57.281,0 c -0.006,0.0421 -0.0312,0.0815 -0.0312,0.125 0,0.47298 0.37077,0.84375 0.84375,0.84375 0.47298,0 0.84375,-0.37077 0.84375,-0.84375 0,-0.0312 0.003,-0.0633 0,-0.0937 -0.55238,-0.0155 -1.104,-0.0166 -1.6562,-0.0312 z m -60.062,0.0625 c -0.57459,0.0174 -1.1443,0.0441 -1.7188,0.0625 0,0.47298 0.37077,0.84375 0.84375,0.84375 0.47298,0 0.875,-0.37077 0.875,-0.84375 0,-0.0208 0.002,-0.042 0,-0.0625 z m 62.812,0.0312 c -3.9e-4,0.0103 0,0.0208 0,0.0312 0,0.47298 0.40202,0.84375 0.875,0.84375 0.47298,0 0.84375,-0.37077 0.84375,-0.84375 -0.57329,-0.0176 -1.1456,-0.0146 -1.7188,-0.0312 z m -65.625,0.0625 c -0.56254,0.0186 -1.1251,0.0429 -1.6875,0.0625 0.0471,0.42534 0.37263,0.75 0.8125,0.75 0.46257,0 0.85786,-0.35445 0.875,-0.8125 z m 68.438,0 c 0.0171,0.45805 0.41243,0.8125 0.875,0.8125 0.43987,0 0.76545,-0.32466 0.8125,-0.75 -0.56337,-0.0187 -1.1242,-0.0447 -1.6875,-0.0625 z m -71.281,0.0937 c -0.55065,0.0198 -1.1058,0.0418 -1.6562,0.0625 0.0892,0.38034 0.4351,0.65625 0.84375,0.65625 0.42947,0 0.75262,-0.30842 0.8125,-0.71875 z m 74.125,0 c 0.0646,0.41033 0.41428,0.71875 0.84375,0.71875 0.40865,0 0.72966,-0.27591 0.8125,-0.65625 -0.55309,-0.0197 -1.1032,-0.0436 -1.6562,-0.0625 z m -76.938,0.0939 c -0.53999,0.0209 -1.0852,0.0407 -1.625,0.0625 0.12036,0.33306 0.43695,0.5625 0.8125,0.5625 0.39825,0 0.71949,-0.25959 0.8125,-0.625 z m 79.75,0 c 0.093,0.36541 0.41425,0.625 0.8125,0.625 0.37555,0 0.69214,-0.22944 0.8125,-0.5625 -0.5428,-0.0207 -1.0823,-0.0426 -1.625,-0.0625 z m 2.8438,0.0937 c 0.11975,0.31838 0.41611,0.53125 0.78125,0.53125 0.33818,0 0.63663,-0.18782 0.78125,-0.46875 -0.52041,-0.0211 -1.0422,-0.0421 -1.5625,-0.0625 z m -85.438,0.0312 c -0.51069,0.0213 -1.0207,0.0404 -1.5312,0.0625 0.13982,0.26803 0.42128,0.4375 0.75,0.4375 0.35474,0 0.6548,-0.19618 0.78125,-0.5 z m 88.344,0.0937 c 0.14796,0.23643 0.38243,0.40625 0.6875,0.40625 0.27906,0 0.50351,-0.14078 0.65625,-0.34375 -0.44703,-0.0192 -0.89677,-0.0438 -1.3438,-0.0625 z m -91.219,0.0312 c -0.45843,0.0205 -0.91669,0.0414 -1.375,0.0625 0.15345,0.19119 0.38665,0.3125 0.65625,0.3125 0.29561,0 0.5594,-0.1509 0.71875,-0.375 z m -2.9062,0.125 c -0.38609,0.0184 -0.77025,0.0436 -1.1562,0.0625 0.14423,0.11576 0.32787,0.1875 0.53125,0.1875 0.23649,0 0.46537,-0.0982 0.625,-0.25 z m 97,0 c 0.15963,0.15181 0.38851,0.25 0.625,0.25 0.21048,0 0.38492,-0.0956 0.53125,-0.21875 -0.38439,-0.0174 -0.7719,-0.0142 -1.1562,-0.0312 z m 3,0.125 c 0.12963,0.0725 0.27984,0.125 0.4375,0.125 0.1348,0 0.26302,-0.0397 0.375,-0.0937 -0.2703,-0.0129 -0.54221,-0.0186 -0.8125,-0.0312 z m -103.03,0.0312 c -0.22987,0.0117 -0.45766,0.0194 -0.6875,0.0312 0.0965,0.0354 0.20466,0.0625 0.3125,0.0625 0.1348,0 0.26302,-0.0397 0.375,-0.0937 z m -4.5938,1.1875 c -0.47298,0 -0.84375,0.40202 -0.84375,0.875 0,0.47298 0.37077,0.84375 0.84375,0.84375 0.47298,0 0.84375,-0.37077 0.84375,-0.84375 0,-0.47298 -0.37077,-0.875 -0.84375,-0.875 z m 2.8125,0 c -0.47298,0 -0.875,0.40202 -0.875,0.875 0,0.47298 0.40202,0.84375 0.875,0.84375 0.47298,0 0.84375,-0.37077 0.84375,-0.84375 0,-0.47298 -0.37077,-0.875 -0.84375,-0.875 z m 2.8125,0 c -0.47298,0 -0.875,0.40202 -0.875,0.875 0,0.47298 0.40202,0.84375 0.875,0.84375 0.47298,0 0.84375,-0.37077 0.84375,-0.84375 0,-0.47298 -0.37077,-0.875 -0.84375,-0.875 z m 2.7812,0 c -0.47298,0 -0.84375,0.40202 -0.84375,0.875 0,0.47298 0.37077,0.84375 0.84375,0.84375 0.47298,0 0.875,-0.37077 0.875,-0.84375 0,-0.47298 -0.40202,-0.875 -0.875,-0.875 z m 2.8125,0 c -0.47298,0 -0.84375,0.40202 -0.84375,0.875 0,0.47298 0.37077,0.84375 0.84375,0.84375 0.47298,0 0.875,-0.37077 0.875,-0.84375 0,-0.47298 -0.40202,-0.875 -0.875,-0.875 z m 2.8125,0 c -0.47298,0 -0.84375,0.40202 -0.84375,0.875 0,0.47298 0.37077,0.84375 0.84375,0.84375 0.47298,0 0.84375,-0.37077 0.84375,-0.84375 0,-0.47298 -0.37077,-0.875 -0.84375,-0.875 z m 2.8125,0 c -0.47298,0 -0.875,0.40202 -0.875,0.875 0,0.47298 0.40202,0.84375 0.875,0.84375 0.47298,0 0.84375,-0.37077 0.84375,-0.84375 0,-0.47298 -0.37077,-0.875 -0.84375,-0.875 z m 2.8125,0 c -0.47298,0 -0.875,0.40202 -0.875,0.875 0,0.47298 0.40202,0.84375 0.875,0.84375 0.47298,0 0.84375,-0.37077 0.84375,-0.84375 0,-0.47298 -0.37077,-0.875 -0.84375,-0.875 z m 2.7812,0 c -0.47298,0 -0.84375,0.40202 -0.84375,0.875 0,0.47298 0.37077,0.84375 0.84375,0.84375 0.47298,0 0.875,-0.37077 0.875,-0.84375 0,-0.47298 -0.40202,-0.875 -0.875,-0.875 z m 2.8125,0 c -0.47298,0 -0.84375,0.40202 -0.84375,0.875 0,0.47298 0.37077,0.84375 0.84375,0.84375 0.47298,0 0.875,-0.37077 0.875,-0.84375 0,-0.47298 -0.40202,-0.875 -0.875,-0.875 z m 2.8125,0 c -0.47298,0 -0.84375,0.40202 -0.84375,0.875 0,0.47298 0.37077,0.84375 0.84375,0.84375 0.47298,0 0.84375,-0.37077 0.84375,-0.84375 0,-0.47298 -0.37077,-0.875 -0.84375,-0.875 z m 2.8125,0 c -0.47298,0 -0.875,0.40202 -0.875,0.875 0,0.47298 0.40202,0.84375 0.875,0.84375 0.47298,0 0.84375,-0.37077 0.84375,-0.84375 0,-0.47298 -0.37077,-0.875 -0.84375,-0.875 z m 2.8125,0 c -0.47298,0 -0.875,0.40202 -0.875,0.875 0,0.47298 0.40202,0.84375 0.875,0.84375 0.47298,0 0.84375,-0.37077 0.84375,-0.84375 0,-0.47298 -0.37077,-0.875 -0.84375,-0.875 z m 2.7812,0 c -0.47298,0 -0.84375,0.40202 -0.84375,0.875 0,0.47298 0.37077,0.84375 0.84375,0.84375 0.47298,0 0.875,-0.37077 0.875,-0.84375 0,-0.47298 -0.40202,-0.875 -0.875,-0.875 z m 2.8125,0 c -0.47298,0 -0.84375,0.40202 -0.84375,0.875 0,0.47298 0.37077,0.84375 0.84375,0.84375 0.47298,0 0.875,-0.37077 0.875,-0.84375 0,-0.47298 -0.40202,-0.875 -0.875,-0.875 z m 2.8125,0 c -0.47298,0 -0.84375,0.40202 -0.84375,0.875 0,0.47298 0.37077,0.84375 0.84375,0.84375 0.47298,0 0.84375,-0.37077 0.84375,-0.84375 0,-0.47298 -0.37077,-0.875 -0.84375,-0.875 z m 2.8125,0 c -0.47298,0 -0.875,0.40202 -0.875,0.875 0,0.47298 0.40202,0.84375 0.875,0.84375 0.47298,0 0.84375,-0.37077 0.84375,-0.84375 0,-0.47298 -0.37077,-0.875 -0.84375,-0.875 z m 2.8125,0 c -0.47298,0 -0.875,0.40202 -0.875,0.875 0,0.47298 0.40202,0.84375 0.875,0.84375 0.47298,0 0.84375,-0.37077 0.84375,-0.84375 0,-0.47298 -0.37077,-0.875 -0.84375,-0.875 z m 2.7812,0 c -0.47298,0 -0.84375,0.40202 -0.84375,0.875 0,0.47298 0.37077,0.84375 0.84375,0.84375 0.47298,0 0.875,-0.37077 0.875,-0.84375 0,-0.47298 -0.40202,-0.875 -0.875,-0.875 z m 2.8125,0 c -0.47298,0 -0.84375,0.40202 -0.84375,0.875 0,0.47298 0.37077,0.84375 0.84375,0.84375 0.47298,0 0.875,-0.37077 0.875,-0.84375 0,-0.47298 -0.40202,-0.875 -0.875,-0.875 z m 2.8125,0 c -0.47298,0 -0.84375,0.40202 -0.84375,0.875 0,0.47298 0.37077,0.84375 0.84375,0.84375 0.47298,0 0.84375,-0.37077 0.84375,-0.84375 0,-0.47298 -0.37077,-0.875 -0.84375,-0.875 z m 2.8125,0 c -0.47298,0 -0.875,0.40202 -0.875,0.875 0,0.47298 0.40202,0.84375 0.875,0.84375 0.47298,0 0.84375,-0.37077 0.84375,-0.84375 0,-0.47298 -0.37077,-0.875 -0.84375,-0.875 z m 2.8125,0 c -0.47298,0 -0.875,0.40202 -0.875,0.875 0,0.47298 0.40202,0.84375 0.875,0.84375 0.47298,0 0.84375,-0.37077 0.84375,-0.84375 0,-0.47298 -0.37077,-0.875 -0.84375,-0.875 z m 2.8125,0 c -0.47298,0 -0.875,0.40202 -0.875,0.875 0,0.47298 0.40202,0.84375 0.875,0.84375 0.47298,0 0.84375,-0.37077 0.84375,-0.84375 0,-0.47298 -0.37077,-0.875 -0.84375,-0.875 z m 2.7812,0 c -0.47298,0 -0.84375,0.40202 -0.84375,0.875 0,0.47298 0.37077,0.84375 0.84375,0.84375 0.47298,0 0.875,-0.37077 0.875,-0.84375 0,-0.47298 -0.40202,-0.875 -0.875,-0.875 z m 2.8125,0 c -0.47298,0 -0.84375,0.40202 -0.84375,0.875 0,0.47298 0.37077,0.84375 0.84375,0.84375 0.47298,0 0.875,-0.37077 0.875,-0.84375 0,-0.47298 -0.40202,-0.875 -0.875,-0.875 z m 2.8125,0 c -0.47298,0 -0.84375,0.40202 -0.84375,0.875 0,0.47298 0.37077,0.84375 0.84375,0.84375 0.47298,0 0.84375,-0.37077 0.84375,-0.84375 0,-0.47298 -0.37077,-0.875 -0.84375,-0.875 z m 2.8125,0 c -0.47298,0 -0.875,0.40202 -0.875,0.875 0,0.47298 0.40202,0.84375 0.875,0.84375 0.47298,0 0.84375,-0.37077 0.84375,-0.84375 0,-0.47298 -0.37077,-0.875 -0.84375,-0.875 z m 2.8125,0 c -0.47298,0 -0.875,0.40202 -0.875,0.875 0,0.47298 0.40202,0.84375 0.875,0.84375 0.47298,0 0.84375,-0.37077 0.84375,-0.84375 0,-0.47298 -0.37077,-0.875 -0.84375,-0.875 z m 2.7812,0 c -0.47298,0 -0.84375,0.40202 -0.84375,0.875 0,0.47298 0.37077,0.84375 0.84375,0.84375 0.47298,0 0.875,-0.37077 0.875,-0.84375 0,-0.47298 -0.40202,-0.875 -0.875,-0.875 z m 2.8125,0 c -0.47298,0 -0.84375,0.40202 -0.84375,0.875 0,0.47298 0.37077,0.84375 0.84375,0.84375 0.47298,0 0.875,-0.37077 0.875,-0.84375 0,-0.47298 -0.40202,-0.875 -0.875,-0.875 z m 2.8125,0 c -0.47298,0 -0.84375,0.40202 -0.84375,0.875 0,0.47298 0.37077,0.84375 0.84375,0.84375 0.47298,0 0.84375,-0.37077 0.84375,-0.84375 0,-0.47298 -0.37077,-0.875 -0.84375,-0.875 z m 2.8125,0 c -0.47298,0 -0.875,0.40202 -0.875,0.875 0,0.47298 0.40202,0.84375 0.875,0.84375 0.47298,0 0.84375,-0.37077 0.84375,-0.84375 0,-0.47298 -0.37077,-0.875 -0.84375,-0.875 z m 2.8125,0 c -0.47298,0 -0.875,0.40202 -0.875,0.875 0,0.47298 0.40202,0.84375 0.875,0.84375 0.47298,0 0.84375,-0.37077 0.84375,-0.84375 0,-0.47298 -0.37077,-0.875 -0.84375,-0.875 z m 2.7812,0 c -0.47298,0 -0.84375,0.40202 -0.84375,0.875 0,0.47298 0.37077,0.84375 0.84375,0.84375 0.47298,0 0.875,-0.37077 0.875,-0.84375 0,-0.47298 -0.40202,-0.875 -0.875,-0.875 z m 2.8125,0 c -0.47298,0 -0.84375,0.40202 -0.84375,0.875 0,0.47298 0.37077,0.84375 0.84375,0.84375 0.47298,0 0.875,-0.37077 0.875,-0.84375 0,-0.47298 -0.40202,-0.875 -0.875,-0.875 z m 2.8125,0 c -0.47298,0 -0.84375,0.40202 -0.84375,0.875 0,0.47298 0.37077,0.84375 0.84375,0.84375 0.47298,0 0.84375,-0.37077 0.84375,-0.84375 0,-0.47298 -0.37077,-0.875 -0.84375,-0.875 z m 2.8125,0 c -0.47298,0 -0.875,0.40202 -0.875,0.875 0,0.47298 0.40202,0.84375 0.875,0.84375 0.47298,0 0.84375,-0.37077 0.84375,-0.84375 0,-0.47298 -0.37077,-0.875 -0.84375,-0.875 z m 2.8125,0 c -0.47298,0 -0.875,0.40202 -0.875,0.875 0,0.47298 0.40202,0.84375 0.875,0.84375 0.47298,0 0.84375,-0.37077 0.84375,-0.84375 0,-0.47298 -0.37077,-0.875 -0.84375,-0.875 z m 2.7812,0 c -0.47298,0 -0.84375,0.40202 -0.84375,0.875 0,0.47298 0.37077,0.84375 0.84375,0.84375 0.47298,0 0.875,-0.37077 0.875,-0.84375 0,-0.47298 -0.40202,-0.875 -0.875,-0.875 z m 2.8125,0 c -0.47298,0 -0.84375,0.40202 -0.84375,0.875 0,0.47298 0.37077,0.84375 0.84375,0.84375 0.47298,0 0.875,-0.37077 0.875,-0.84375 0,-0.47298 -0.40202,-0.875 -0.875,-0.875 z m 2.8125,0 c -0.47298,0 -0.84375,0.40202 -0.84375,0.875 0,0.47298 0.37077,0.84375 0.84375,0.84375 0.47298,0 0.84375,-0.37077 0.84375,-0.84375 0,-0.47298 -0.37077,-0.875 -0.84375,-0.875 z m -116.47,2.8125 c -0.32872,0 -0.61018,0.16947 -0.75,0.4375 a 2.66,2.66 0 0 0 1.375,1 c 0.13486,-0.15633 0.21875,-0.37242 0.21875,-0.59375 0,-0.47298 -0.37077,-0.84375 -0.84375,-0.84375 z m 2.8125,0 c -0.47298,0 -0.875,0.37077 -0.875,0.84375 0,0.2759 0.13587,0.5256 0.34375,0.6875 0.37567,-0.0207 0.74923,-0.0423 1.125,-0.0625 0.15181,-0.15963 0.25,-0.38851 0.25,-0.625 0,-0.47298 -0.37077,-0.84375 -0.84375,-0.84375 z m 2.8125,0 c -0.47298,0 -0.875,0.37077 -0.875,0.84375 0,0.19708 0.0719,0.38276 0.1875,0.53125 0.4592,-0.024 0.91566,-0.0392 1.375,-0.0625 0.0859,-0.13772 0.15625,-0.29593 0.15625,-0.46875 0,-0.47298 -0.37077,-0.84375 -0.84375,-0.84375 z m 2.7812,0 c -0.47298,0 -0.84375,0.37077 -0.84375,0.84375 0,0.1425 0.0338,0.28569 0.0937,0.40625 0.52171,-0.0258 1.0406,-0.0688 1.5625,-0.0937 0.0379,-0.0965 0.0625,-0.20466 0.0625,-0.3125 0,-0.47298 -0.40202,-0.84375 -0.875,-0.84375 z m 2.8125,0 c -0.47298,0 -0.84375,0.37077 -0.84375,0.84375 0,0.087 0.0391,0.16984 0.0625,0.25 0.54105,-0.0252 1.0838,-0.0382 1.625,-0.0625 0.014,-0.0609 0.0312,-0.12317 0.0312,-0.1875 0,-0.47298 -0.40202,-0.84375 -0.875,-0.84375 z m 2.8125,0 c -0.47298,0 -0.84375,0.37077 -0.84375,0.84375 0,0.0435 0.0252,0.0829 0.0312,0.125 0.55178,-0.0241 1.1043,-0.0394 1.6562,-0.0625 0.001,-0.0205 0,-0.0417 0,-0.0625 0,-0.47298 -0.37077,-0.84375 -0.84375,-0.84375 z m 2.8125,0 c -0.47298,0 -0.875,0.37077 -0.875,0.84375 0,0.0104 -3.9e-4,0.0209 0,0.0312 0.57314,-0.0234 1.1454,-0.0401 1.7188,-0.0625 -0.0158,-0.45805 -0.38118,-0.8125 -0.84375,-0.8125 z m 2.8125,0 c -0.44176,0 -0.82678,0.32193 -0.875,0.75 0.56307,-0.0214 1.1242,-0.0421 1.6875,-0.0625 -0.0718,-0.39532 -0.39344,-0.6875 -0.8125,-0.6875 z m 2.7812,0 c -0.40865,0 -0.72966,0.27591 -0.8125,0.65625 0.55208,-0.0194 1.104,-0.0441 1.6562,-0.0625 -0.10988,-0.35054 -0.45591,-0.59375 -0.84375,-0.59375 z m 2.8125,0 c -0.37555,0 -0.66901,0.22944 -0.78125,0.5625 0.52985,-0.0171 1.0637,-0.0151 1.5938,-0.0312 -0.12824,-0.31838 -0.44736,-0.53125 -0.8125,-0.53125 z m 2.8125,0 c -0.34528,0 -0.64938,0.17806 -0.78125,0.46875 0.50937,-0.0149 1.0217,-0.0171 1.5312,-0.0312 -0.15191,-0.25844 -0.42837,-0.4375 -0.75,-0.4375 z m 2.8125,0 c -0.31217,0 -0.57284,0.16045 -0.71875,0.40625 0.46822,-0.0124 0.9379,-0.0195 1.4062,-0.0312 -0.15019,-0.2241 -0.39189,-0.375 -0.6875,-0.375 z m 2.8125,0 c -0.27906,0 -0.52584,0.14078 -0.6875,0.34375 0.44767,-0.0106 0.89597,-0.0213 1.3438,-0.0312 -0.15345,-0.19119 -0.38665,-0.3125 -0.65625,-0.3125 z m 2.8125,0 c -0.25304,0 -0.49452,0.11013 -0.65625,0.28125 0.41667,-0.009 0.83324,-0.0231 1.25,-0.0312 -0.15181,-0.15181 -0.35726,-0.25 -0.59375,-0.25 z m 2.7812,0 c -0.21994,0 -0.41377,0.0854 -0.5625,0.21875 0.37501,-0.007 0.74991,0.006 1.125,0 -0.15375,-0.12504 -0.35027,-0.21875 -0.5625,-0.21875 z m 2.8125,0 c -0.18683,0 -0.36162,0.0571 -0.5,0.15625 0.32309,-0.005 0.6456,0.005 0.96875,0 -0.13772,-0.0859 -0.29593,-0.15625 -0.46875,-0.15625 z m 2.8125,0 c -0.15135,0 -0.28463,0.0579 -0.40625,0.125 0.27061,-0.003 0.54185,0.003 0.8125,0 -0.12162,-0.0671 -0.2549,-0.125 -0.40625,-0.125 z m 2.8125,0 c -0.1425,0 -0.28569,0.0338 -0.40625,0.0937 0.26033,-0.003 0.52089,0.002 0.78125,0 -0.11198,-0.054 -0.2402,-0.0937 -0.375,-0.0937 z m 2.8125,0 c -0.1334,0 -0.26031,0.0408 -0.375,0.0937 0.25003,-0.002 0.49994,0.002 0.75,0 -0.11198,-0.054 -0.2402,-0.0937 -0.375,-0.0937 z m 2.7812,0 c -0.11825,0 -0.24248,0.0204 -0.34375,0.0625 0.2293,-9.6e-4 0.45818,8.1e-4 0.6875,0 -0.1042,-0.0421 -0.2255,-0.0625 -0.34375,-0.0625 z m 2.8125,0 c -0.0851,0 -0.17305,0.009 -0.25,0.0312 0.15641,-2.2e-4 0.31233,1.5e-4 0.46875,0 -0.0699,-0.0174 -0.14402,-0.0312 -0.21875,-0.0312 z m 2.8125,0 c -0.0643,0 -0.12763,0.0182 -0.1875,0.0312 0.13531,1.8e-4 0.27093,-2.3e-4 0.40625,0 -0.0686,-0.0174 -0.14402,-0.0312 -0.21875,-0.0312 z m 2.8125,0 c -0.10784,0 -0.21596,0.0271 -0.3125,0.0625 0.20826,8.1e-4 0.41672,-9.3e-4 0.625,0 -0.094,-0.0354 -0.20466,-0.0625 -0.3125,-0.0625 z m 2.8125,0 c -0.11825,0 -0.23955,0.0204 -0.34375,0.0625 0.22917,10e-4 0.45831,-0.002 0.6875,0 -0.10127,-0.0421 -0.2255,-0.0625 -0.34375,-0.0625 z m 2.7812,0 c -0.1348,0 -0.26302,0.0397 -0.375,0.0937 0.26052,0.002 0.5207,-0.003 0.78125,0 -0.12056,-0.06 -0.26375,-0.0937 -0.40625,-0.0937 z m 2.8125,0 c -0.14426,0 -0.28863,0.0324 -0.40625,0.0937 0.27111,0.003 0.54136,0.0279 0.8125,0.0312 -0.1243,-0.0648 -0.25769,-0.125 -0.40625,-0.125 z m 2.8125,0 c -0.16081,0 -0.31087,0.0498 -0.4375,0.125 0.30185,0.004 0.60436,0.0267 0.90625,0.0312 -0.13446,-0.0901 -0.29138,-0.15625 -0.46875,-0.15625 z m 2.8125,0 c -0.19708,0 -0.38276,0.0782 -0.53125,0.1875 0.36438,0.006 0.72932,0.0248 1.0938,0.0312 -0.14873,-0.13334 -0.34256,-0.21875 -0.5625,-0.21875 z m 2.8125,0 c -0.23649,0 -0.46537,0.0982 -0.625,0.25 0.41654,0.008 0.8334,0.0227 1.25,0.0312 -0.15341,-0.17112 -0.37196,-0.28125 -0.625,-0.28125 z m 2.7812,0 c -0.2696,0 -0.5028,0.12131 -0.65625,0.3125 0.4479,0.01 0.89578,0.0209 1.3438,0.0312 -0.16166,-0.20297 -0.40844,-0.34375 -0.6875,-0.34375 z m 2.8125,0 c -0.29561,0 -0.53731,0.1509 -0.6875,0.375 0.47928,0.0117 0.95814,0.0189 1.4375,0.0312 -0.15517,-0.2458 -0.43783,-0.40625 -0.75,-0.40625 z m 2.8125,0 c -0.32163,0 -0.57609,0.17906 -0.71875,0.4375 0.49909,0.0134 1.0008,0.0171 1.5,0.0312 -0.13187,-0.29069 -0.43597,-0.46875 -0.78125,-0.46875 z m 2.8125,0 c -0.36514,0 -0.68426,0.21287 -0.8125,0.53125 0.53029,0.0156 1.0634,0.0149 1.5938,0.0312 -0.11224,-0.33306 -0.4057,-0.5625 -0.78125,-0.5625 z m 2.8125,0 c -0.39825,0 -0.74374,0.25959 -0.84375,0.625 0.55122,0.0176 1.1049,0.0129 1.6562,0.0312 -0.0828,-0.38034 -0.40385,-0.65625 -0.8125,-0.65625 z m 2.8125,0 c -0.42947,0 -0.77913,0.30842 -0.84375,0.71875 0.56176,0.0193 1.1256,0.0111 1.6875,0.0312 -0.0446,-0.42807 -0.40199,-0.75 -0.84375,-0.75 z m 2.7812,0 c -0.46257,0 -0.82792,0.35445 -0.84375,0.8125 0.5723,0.0211 1.1464,0.009 1.7188,0.0312 0,-0.47298 -0.40202,-0.84375 -0.875,-0.84375 z m 2.8125,0 c -0.47298,0 -0.84375,0.37077 -0.84375,0.84375 0,0.0208 -0.001,0.042 0,0.0625 0.56223,0.0221 1.1252,0.0395 1.6875,0.0625 0.007,-0.0421 0.0312,-0.0815 0.0312,-0.125 0,-0.47298 -0.40202,-0.84375 -0.875,-0.84375 z m 2.8125,0 c -0.47298,0 -0.84375,0.37077 -0.84375,0.84375 0,0.0643 0.0182,0.12663 0.0312,0.1875 0.54141,0.0227 1.0835,0.039 1.625,0.0625 0.0225,-0.0786 0.0312,-0.16486 0.0312,-0.25 0,-0.47298 -0.37077,-0.84375 -0.84375,-0.84375 z m 2.8125,0 c -0.47298,0 -0.875,0.37077 -0.875,0.84375 0,0.10784 0.0246,0.21596 0.0625,0.3125 0.52074,0.0231 1.0417,0.0387 1.5625,0.0625 0.053,-0.11469 0.0937,-0.2416 0.0937,-0.375 0,-0.47298 -0.37077,-0.84375 -0.84375,-0.84375 z m 2.8125,0 c -0.47298,0 -0.875,0.37077 -0.875,0.84375 0,0.15766 0.0479,0.30787 0.125,0.4375 0.47925,0.0225 0.9582,0.0394 1.4375,0.0625 0.0944,-0.14209 0.15625,-0.31808 0.15625,-0.5 0,-0.47298 -0.37077,-0.84375 -0.84375,-0.84375 z m 2.7812,0 c -0.47298,0 -0.84375,0.37077 -0.84375,0.84375 0,0.21223 0.0937,0.40875 0.21875,0.5625 0.41695,0.0206 0.83302,0.0414 1.25,0.0625 0.15963,-0.15963 0.25,-0.38851 0.25,-0.625 0,-0.47298 -0.40202,-0.84375 -0.875,-0.84375 z m 2.8125,0 c -0.47298,0 -0.84375,0.37077 -0.84375,0.84375 0,0.28615 0.1318,0.55785 0.34375,0.71875 0.11442,0.006 0.22933,-0.006 0.34375,0 a 2.6592,2.6592 0 0 0 0.78125,-0.0935 c 0.15963,-0.15963 0.25,-0.38851 0.25,-0.625 0,-0.47298 -0.40202,-0.84375 -0.875,-0.84375 z"
         id="path3949"
         inkscape:connector-curvature="0"
         style="fill:#656260" />
      <path
         d="m 207.56255,617.86202 -3.3928,3.3929 3.4375,3.4375"
         id="path4433"
         inkscape:connector-curvature="0"
         style="fill:none;stroke:#ffffff;stroke-width:2;stroke-linecap:round;stroke-linejoin:round" />
      <path
         d="m 204.35255,621.16202 h 6.9643 l 4.3304,4.3304 0.22321,-0.22322 v 0"
         id="path4437"
         inkscape:connector-curvature="0"
         style="fill:none;stroke:#ffffff;stroke-width:2;stroke-linecap:round;stroke-linejoin:round" />
      <path
         d="m 268.13255,619.55202 h 9.5345"
         id="path4441"
         inkscape:connector-curvature="0"
         style="fill:none;stroke:#ffffff;stroke-width:1.5;stroke-linecap:round;stroke-linejoin:round" />
      <path
         d="m 268.13255,622.94202 h 9.5345"
         id="path4443"
         inkscape:connector-curvature="0"
         style="fill:none;stroke:#ffffff;stroke-width:1.5;stroke-linecap:round;stroke-linejoin:round" />
      <path
         d="m 268.13255,625.98202 h 9.5345"
         id="path4445"
         inkscape:connector-curvature="0"
         style="fill:none;stroke:#ffffff;stroke-width:1.5;stroke-linecap:round;stroke-linejoin:round" />
      <path
         d="m 264.87255,616.56202 h 12.793"
         id="path4447"
         inkscape:connector-curvature="0"
         style="fill:none;stroke:#ffffff;stroke-width:2;stroke-linecap:round;stroke-linejoin:round" />
      <path
         d="m 325.96255,622.41202 6.2883,-6.4777 6.5179,6.5178"
         id="path4449"
         inkscape:connector-curvature="0"
         style="fill:none;stroke:#ffffff;stroke-width:2;stroke-linecap:round;stroke-linejoin:round" />
      <path
         d="m 336.42255,623.75202 v 3.75 h -8.0357 v -3.75"
         id="path4451"
         inkscape:connector-curvature="0"
         style="fill:none;stroke:#ffffff;stroke-width:2;stroke-linecap:round;stroke-linejoin:round" />
      <path
         d="m 336.40255,619.73202 v -3.125"
         id="path4453"
         inkscape:connector-curvature="0"
         style="fill:none;stroke:#ffffff;stroke-width:2;stroke-linecap:round;stroke-linejoin:round" />
      <path
         d="m 395.94335,620.05502 c 0,2.38201 -1.93097,4.31297 -4.31298,4.31297 -2.38192,0 -4.31298,-1.93096 -4.31298,-4.31297 0,-2.38201 1.93097,-4.31298 4.31298,-4.31298 2.38201,0 4.31298,1.93097 4.31298,4.31298 z"
         id="path4463"
         inkscape:connector-curvature="0"
         style="fill:none;stroke:#ffffff;stroke-width:1.70783997;stroke-linecap:round;stroke-linejoin:round" />
      <path
         d="m 395.00255,623.51202 4.565,4.8993"
         id="path4467"
         inkscape:connector-curvature="0"
         style="fill:none;stroke:#ffffff;stroke-width:2.5" />
      <path
         d="m 182.03255,201.24202 h 240 v 400 c -40.469,-127.44 -55.55,-268.39 -240,-319.29 v -80.714 z"
         id="rect3025"
         inkscape:connector-curvature="0"
         style="opacity:0.5;fill:url(#linearGradient3260)" />
    </g>
    <g
       id="g5210"
       transform="translate(-2.0203051,-14.142136)">
      <path
         id="path3298"
         d="M -123.33265,517.56038 A 115.44774,164.92534 59.999999 0 0 -27.689015,367.12082"
         inkscape:connector-curvature="0"
         style="fill:none;stroke:#ffffff;stroke-width:3.29850674" />
      <path
         id="path3300"
         d="M -123.33265,517.56038 A 115.44774,164.92534 59.999999 0 1 54.773655,509.95035"
         inkscape:connector-curvature="0"
         style="fill:none;stroke:#ffffff;stroke-width:3.29850674" />
      <path
         id="path3302"
         d="M -27.348929,386.94346 A 107.20147,49.477601 59.999999 0 1 37.775965,499.74308"
         inkscape:connector-curvature="0"
         style="fill:none;stroke:#ffffff;stroke-width:3.29850674" />
      <path
         d="M 8.0113149,428.39815 A 11.544776,14.843283 59.999999 1 0 19.556089,448.39429"
         id="pupil"
         inkscape:connector-curvature="0"
         style="fill:#ffffff;stroke:#ffffff;stroke-width:3.29850674" />
      <g
         id="eyelashs"
         style="fill:#ffffff;stroke:#ffffff"
         transform="matrix(1.4282953,-0.8246267,0.8246267,1.4282953,-220.07827,382.97712)">
        <path
           d="m 105,51.857 6,7"
           id="eylash1"
           inkscape:connector-curvature="0"
           style="fill:#ffffff;stroke:#ffffff;stroke-width:1" />
        <path
           d="m 104,53.882 6,7"
           id="eylash2"
           inkscape:connector-curvature="0"
           style="fill:#ffffff;stroke:#ffffff;stroke-width:1" />
        <path
           d="m 103,55.729 6,7"
           id="eylash3"
           inkscape:connector-curvature="0"
           style="fill:#ffffff;stroke:#ffffff;stroke-width:1" />
        <path
           d="m 102,57.434 6,7"
           id="eylash4"
           inkscape:connector-curvature="0"
           style="fill:#ffffff;stroke:#ffffff;stroke-width:1" />
      </g>
    </g>
    <path
       style="fill:#ffffff;stroke:#ffffff;stroke-width:5;stroke-linecap:butt;stroke-linejoin:miter;stroke-miterlimit:4;stroke-opacity:1;stroke-dasharray:none;marker-end:url(#Arrow1Lendo)"
       d="M 82.857143,383.79075 521.72891,130.40802"
       id="path3324"
       inkscape:connector-curvature="0" />
  </g>
</svg>
